var fontJSON=
{"glyphs":{"0":{"ha":836,"x_min":-30,"x_max":865,"o":"m 171 -2 q 10 201 -30 -1 l 92 610 q 321 745 119 745 l 663 745 q 838 608 865 745 l 742 132 q 509 -2 715 -2 l 171 -2 m 268 135 l 471 135 l 526 408 l 268 135 m 363 610 l 309 338 l 566 610 l 363 610 z "},"1":{"ha":456,"x_min":32,"x_max":453,"o":"m 119 746 l 453 746 l 304 1 l 32 1 l 155 612 l 85 614 l 119 746 z "},"2":{"ha":854,"x_min":7,"x_max":879,"o":"m 129 611 q 357 745 156 745 l 698 746 q 851 608 879 747 l 812 410 l 304 136 l 759 136 l 732 -1 l 7 1 l 48 203 l 559 509 l 581 612 l 399 609 l 386 543 l 114 541 l 129 611 z "},"3":{"ha":739,"x_min":5,"x_max":768,"o":"m 768 746 l 741 610 l 578 440 l 705 441 l 647 135 q 380 0 619 -1 l 5 0 l 31 134 l 233 133 q 390 202 376 132 l 412 314 l 68 315 l 94 442 l 313 442 l 479 610 l 127 608 l 156 744 l 768 746 z "},"4":{"ha":857,"x_min":26,"x_max":878,"o":"m 330 811 l 604 811 l 326 338 l 529 338 l 611 742 l 878 743 l 731 1 l 463 1 l 500 205 l 26 205 l 53 342 l 330 811 z "},"5":{"ha":778,"x_min":-22,"x_max":803,"o":"m 125 745 l 803 745 l 777 609 l 372 609 l 352 506 l 549 481 q 730 379 744 445 l 681 132 q 455 0 654 1 l 180 0 q 5 137 -22 0 l 18 203 l 291 203 l 275 135 l 412 135 l 450 323 l 54 385 l 125 745 z "},"6":{"ha":767,"x_min":-22,"x_max":750,"o":"m 98 608 q 330 745 125 745 l 734 745 l 709 609 l 372 609 l 347 476 l 547 476 q 722 339 750 475 l 681 132 q 455 0 654 1 l 180 0 q 5 137 -22 0 l 98 608 m 275 135 l 412 135 l 453 340 l 319 340 l 275 135 z "},"7":{"ha":768,"x_min":68,"x_max":795,"o":"m 103 746 l 795 746 l 770 610 l 446 -1 l 174 -1 l 498 612 l 68 614 l 103 746 z "},"8":{"ha":777,"x_min":-22,"x_max":803,"o":"m 275 135 l 412 135 l 453 340 l 319 340 l 275 135 m 98 608 q 330 745 125 745 l 598 745 q 776 609 803 745 l 749 473 q 665 404 735 404 q 722 338 735 405 l 681 132 q 455 0 654 1 l 180 0 q 5 137 -22 0 l 45 341 q 128 406 56 405 q 71 473 58 408 l 98 608 m 505 609 l 372 609 l 347 476 l 479 476 l 505 609 z "},"9":{"ha":753,"x_min":12,"x_max":783,"o":"m 663 137 q 431 0 636 0 l 103 0 l 129 136 l 389 136 l 414 269 l 214 269 q 39 406 12 270 l 80 612 q 306 745 107 744 l 581 745 q 757 608 783 745 l 663 137 m 486 610 l 349 610 l 308 405 l 442 404 l 486 610 z "}," ":{"ha":386,"x_min":0,"x_max":0,"o":""}," ":{"ha":386,"x_min":0,"x_max":0,"o":""},"!":{"ha":510,"x_min":63,"x_max":511,"o":"m 63 -3 l 88 135 l 308 135 l 283 -3 l 63 -3 m 239 812 l 511 812 l 319 205 l 116 205 l 239 812 z "},"\"":{"ha":412,"x_min":28,"x_max":425,"o":"m 28 559 l 79 814 l 235 814 l 184 559 l 28 559 m 218 559 l 269 814 l 425 814 l 374 559 l 218 559 z "},"#":{"ha":772,"x_min":0,"x_max":0,"o":""},"$":{"ha":815,"x_min":15,"x_max":840,"o":"m 444 281 l 415 135 l 517 135 l 545 267 l 444 281 m 433 609 l 347 609 l 321 477 l 404 466 l 433 609 m 370 291 l 279 304 q 96 404 83 340 l 137 609 q 366 745 165 745 l 460 745 l 488 884 l 564 884 l 536 745 l 840 745 l 814 609 l 509 609 l 479 455 l 578 441 q 760 339 773 405 l 718 132 q 492 0 691 1 l 388 0 l 361 -137 l 284 -137 l 311 0 l 15 0 l 41 135 l 338 135 l 370 291 z "},"%":{"ha":1235,"x_min":0,"x_max":0,"o":""},"&":{"ha":868,"x_min":5,"x_max":882,"o":"m 545 339 q 294 134 332 339 l 399 134 q 525 237 505 134 l 545 339 m 842 466 l 882 466 l 857 339 l 817 339 l 750 0 l 481 -1 l 498 91 q 339 -1 430 -1 l 172 -1 q 26 134 5 -1 q 206 341 71 298 q 102 494 73 340 l 126 609 q 393 744 154 745 l 779 744 l 753 611 l 521 612 q 383 542 397 612 l 366 467 l 570 467 l 589 546 l 847 477 l 842 466 z "},"'":{"ha":208,"x_min":28,"x_max":235,"o":"m 28 559 l 79 814 l 235 814 l 184 559 l 28 559 z "},"(":{"ha":463,"x_min":0,"x_max":0,"o":""},")":{"ha":463,"x_min":0,"x_max":0,"o":""},"*":{"ha":541,"x_min":0,"x_max":0,"o":""},"+":{"ha":811,"x_min":0,"x_max":0,"o":""},",":{"ha":326,"x_min":-31,"x_max":275,"o":"m -31 -138 l 55 255 l 275 255 l 89 -138 l -31 -138 z "},"-":{"ha":366,"x_min":44,"x_max":317,"o":"m 180 505 q 248 487 215 505 q 298 437 280 469 q 317 368 317 404 q 299 301 317 333 q 248 251 281 269 q 180 233 216 233 q 113 251 145 233 q 62 301 80 269 q 44 368 44 333 q 62 437 44 404 q 113 487 81 469 q 180 505 146 505 z "},"­":{"ha":366,"x_min":44,"x_max":317,"o":"m 180 505 q 248 487 215 505 q 298 437 280 469 q 317 368 317 404 q 299 301 317 333 q 248 251 281 269 q 180 233 216 233 q 113 251 145 233 q 62 301 80 269 q 44 368 44 333 q 62 437 44 404 q 113 487 81 469 q 180 505 146 505 z "},".":{"ha":326,"x_min":4,"x_max":275,"o":"m 4 -1 l 55 255 l 275 255 l 224 -1 l 4 -1 z "},"/":{"ha":386,"x_min":0,"x_max":0,"o":""},":":{"ha":386,"x_min":0,"x_max":0,"o":""},";":{"ha":386,"x_min":0,"x_max":0,"o":""},";":{"ha":386,"x_min":0,"x_max":0,"o":""},"<":{"ha":811,"x_min":0,"x_max":0,"o":""},"=":{"ha":811,"x_min":0,"x_max":0,"o":""},">":{"ha":811,"x_min":0,"x_max":0,"o":""},"?":{"ha":814,"x_min":18,"x_max":836,"o":"m 52 203 l 79 339 q 301 441 92 405 l 511 477 l 537 609 l 132 609 l 161 745 l 635 745 q 810 609 836 745 l 769 404 q 546 304 757 340 l 334 267 l 323 203 l 52 203 m 18 -3 l 43 135 l 312 135 l 287 -3 l 18 -3 z "},"@":{"ha":1410,"x_min":0,"x_max":0,"o":""},"A":{"ha":850,"x_min":9,"x_max":879,"o":"m 150 814 l 425 814 l 411 748 l 680 747 q 851 611 879 747 l 729 1 l 470 2 l 510 205 l 368 204 l 395 342 l 536 342 l 591 613 l 383 614 l 282 111 l 9 111 l 150 814 z "},"B":{"ha":868,"x_min":5,"x_max":896,"o":"m 166 816 l 435 816 l 420 745 l 896 746 l 868 610 l 768 440 l 833 441 l 774 135 q 508 0 747 -1 l 335 0 l 361 133 q 517 202 503 132 l 540 314 l 405 315 l 430 442 l 503 442 l 607 610 l 395 610 l 275 0 l 5 0 l 126 608 l 59 608 l 87 744 l 153 744 l 166 816 z "},"C":{"ha":755,"x_min":-13,"x_max":785,"o":"m 109 611 q 336 747 137 747 l 785 747 l 756 609 l 376 609 l 281 132 l 655 132 l 629 1 l 188 1 q 14 135 -13 1 l 109 611 z "},"D":{"ha":840,"x_min":14,"x_max":867,"o":"m 136 814 l 407 814 l 380 678 l 463 747 l 665 747 q 839 608 867 748 l 745 134 q 515 0 719 0 l 40 0 l 67 135 l 472 135 l 568 608 l 365 608 l 283 203 l 14 202 l 136 814 z "},"E":{"ha":806,"x_min":7,"x_max":834,"o":"m 87 745 l 834 745 l 807 608 l 467 608 l 440 473 l 778 473 l 751 338 l 412 338 l 385 201 q 444 132 370 134 l 710 133 l 685 1 l 279 1 q 100 134 73 0 l 141 338 l 7 338 l 34 473 l 170 474 l 197 612 l 61 611 l 87 745 z "},"F":{"ha":877,"x_min":7,"x_max":903,"o":"m 152 743 l 903 743 l 876 608 l 535 608 l 508 475 l 848 474 l 821 336 l 483 336 l 442 134 q 211 -1 416 -1 l 7 1 l 35 139 l 102 138 q 181 199 168 137 l 208 334 l 74 335 l 101 472 l 232 472 l 263 608 l 127 608 l 152 743 z "},"G":{"ha":800,"x_min":3,"x_max":827,"o":"m 168 813 l 436 815 l 422 743 l 827 742 l 800 606 l 395 606 l 301 132 l 455 133 l 458 530 l 812 530 l 787 403 l 729 403 l 730 201 q 543 -1 730 -1 l 3 -1 l 124 608 l 55 608 l 81 743 l 151 743 l 168 813 z "},"H":{"ha":870,"x_min":5,"x_max":897,"o":"m 163 811 l 438 811 l 370 473 l 573 473 l 628 742 l 897 741 l 748 1 l 479 1 l 545 340 l 345 339 l 304 131 l 33 132 l 75 339 l 5 339 l 33 476 l 96 476 l 163 811 z "},"I":{"ha":456,"x_min":32,"x_max":453,"o":"m 181 746 l 453 746 l 304 1 l 32 1 l 181 746 z "},"J":{"ha":588,"x_min":-209,"x_max":566,"o":"m 294 746 l 566 746 l 403 -68 q 168 -204 376 -204 l -209 -204 l -181 -68 l 131 -68 l 294 746 z "},"K":{"ha":766,"x_min":10,"x_max":856,"o":"m 174 811 l 442 811 l 387 539 l 582 743 l 856 743 l 532 384 l 770 -137 l 510 -137 l 326 221 l 281 -1 l 10 -1 l 174 811 z "},"L":{"ha":714,"x_min":2,"x_max":696,"o":"m 151 743 l 422 743 l 314 201 l 696 326 l 666 180 l 138 0 l 2 0 l 151 743 z "},"M":{"ha":1048,"x_min":8,"x_max":1074,"o":"m 143 814 l 413 814 l 399 745 l 575 745 q 720 662 730 742 l 736 744 l 871 744 q 1047 608 1074 743 l 926 0 l 657 0 l 780 612 l 709 611 l 600 64 l 332 63 l 441 612 l 375 612 l 276 135 l 8 135 l 143 814 z "},"N":{"ha":949,"x_min":8,"x_max":975,"o":"m 174 817 l 448 817 l 633 405 l 699 746 l 975 747 l 852 136 q 621 1 821 -2 l 519 1 l 367 425 l 280 0 l 8 -1 l 174 817 z "},"O":{"ha":878,"x_min":8,"x_max":902,"o":"m 129 610 q 359 744 155 744 l 699 744 q 875 610 902 744 l 781 136 q 548 0 753 0 l 210 0 q 34 133 8 1 l 129 610 m 401 608 l 306 134 l 509 134 l 604 608 l 401 608 z "},"P":{"ha":877,"x_min":6,"x_max":898,"o":"m 157 743 l 698 743 q 871 610 898 744 l 817 338 q 589 203 789 207 l 388 203 l 413 338 l 549 337 l 606 610 l 129 610 l 157 743 m 113 541 l 386 541 l 277 0 l 6 -1 l 113 541 z "},"Q":{"ha":877,"x_min":8,"x_max":902,"o":"m 129 610 q 359 744 155 744 l 699 744 q 876 610 902 744 l 726 -136 l 455 -135 l 604 608 l 401 608 l 306 134 l 444 134 l 416 0 l 212 0 q 34 133 8 1 l 129 610 z "},"R":{"ha":868,"x_min":4,"x_max":897,"o":"m 153 746 l 897 746 l 822 370 q 666 275 802 274 l 753 0 l 479 1 l 393 269 l 330 270 l 275 1 l 4 1 l 112 545 l 386 545 l 360 410 l 562 410 l 604 612 l 126 612 l 153 746 z "},"S":{"ha":815,"x_min":15,"x_max":840,"o":"m 137 609 q 366 745 165 745 l 840 745 l 814 609 l 410 609 l 384 477 l 578 441 q 760 339 773 405 l 718 132 q 492 0 691 1 l 15 0 l 41 135 l 448 135 l 475 267 l 279 304 q 96 404 83 340 l 137 609 z "},"T":{"ha":760,"x_min":58,"x_max":793,"o":"m 534 543 l 531 541 l 421 0 l 151 0 l 262 543 l 58 543 l 88 683 l 426 683 q 505 744 492 682 l 519 817 l 793 817 l 766 679 l 767 679 l 766 678 q 534 543 739 543 l 534 543 z "},"U":{"ha":878,"x_min":7,"x_max":903,"o":"m 631 745 l 903 745 l 783 132 q 552 -1 755 1 l 213 -1 q 37 134 7 1 l 117 538 l 50 538 l 77 677 l 415 677 l 308 133 l 509 133 l 631 745 z "},"V":{"ha":720,"x_min":7,"x_max":771,"o":"m 7 747 l 264 747 l 340 315 l 473 608 l 361 610 l 406 743 l 771 744 l 547 155 l 394 155 l 414 0 l 153 0 l 7 747 z "},"W":{"ha":1088,"x_min":7,"x_max":1139,"o":"m 7 747 l 264 747 l 340 315 l 414 501 l 375 747 l 633 747 l 709 315 l 841 608 l 730 610 l 774 743 l 1139 744 l 915 155 l 762 155 l 782 0 l 522 0 l 492 154 l 387 155 l 414 0 l 153 0 l 7 747 z "},"X":{"ha":796,"x_min":4,"x_max":898,"o":"m 154 745 l 429 745 l 487 539 l 630 742 l 898 742 l 615 373 l 711 133 l 779 132 l 751 0 l 485 0 l 427 206 l 277 -1 l 4 0 l 287 366 l 202 609 l 127 610 l 154 745 z "},"Y":{"ha":755,"x_min":8,"x_max":848,"o":"m 344 0 l 8 0 l 35 138 l 134 136 l 230 267 l 102 742 l 371 742 l 406 474 l 573 745 l 848 745 l 344 0 z "},"Z":{"ha":808,"x_min":7,"x_max":834,"o":"m 155 746 l 834 747 l 807 609 l 353 136 l 714 136 l 688 -1 l 7 1 l 35 135 l 491 610 l 129 611 l 155 746 z "},"[":{"ha":386,"x_min":0,"x_max":0,"o":""},"\\":{"ha":386,"x_min":0,"x_max":0,"o":""},"]":{"ha":386,"x_min":0,"x_max":0,"o":""},"^":{"ha":430,"x_min":64,"x_max":392,"o":"m 336 1156 l 392 880 l 276 880 l 245 979 l 180 880 l 64 880 l 223 1156 l 336 1156 z "},"_":{"ha":772,"x_min":0,"x_max":0,"o":""},"`":{"ha":208,"x_min":-62,"x_max":187,"o":"m 71 880 l -62 1156 l 120 1156 l 187 880 l 71 880 z "},"a":{"ha":850,"x_min":9,"x_max":879,"o":"m 150 814 l 425 814 l 411 748 l 680 747 q 851 611 879 747 l 729 1 l 470 2 l 510 205 l 368 204 l 395 342 l 536 342 l 591 613 l 383 614 l 282 111 l 9 111 l 150 814 z "},"b":{"ha":868,"x_min":5,"x_max":896,"o":"m 166 816 l 435 816 l 420 745 l 896 746 l 868 610 l 768 440 l 833 441 l 774 135 q 508 0 747 -1 l 335 0 l 361 133 q 517 202 503 132 l 540 314 l 405 315 l 430 442 l 503 442 l 607 610 l 395 610 l 275 0 l 5 0 l 126 608 l 59 608 l 87 744 l 153 744 l 166 816 z "},"c":{"ha":755,"x_min":-13,"x_max":785,"o":"m 109 611 q 336 747 137 747 l 785 747 l 756 609 l 376 609 l 281 132 l 655 132 l 629 1 l 188 1 q 14 135 -13 1 l 109 611 z "},"d":{"ha":840,"x_min":14,"x_max":867,"o":"m 136 814 l 407 814 l 380 678 l 463 747 l 665 747 q 839 608 867 748 l 745 134 q 515 0 719 0 l 40 0 l 67 135 l 472 135 l 568 608 l 365 608 l 283 203 l 14 202 l 136 814 z "},"e":{"ha":806,"x_min":7,"x_max":834,"o":"m 87 745 l 834 745 l 807 608 l 467 608 l 440 473 l 778 473 l 751 338 l 412 338 l 385 201 q 444 132 370 134 l 710 133 l 685 1 l 279 1 q 100 134 73 0 l 141 338 l 7 338 l 34 473 l 170 474 l 197 612 l 61 611 l 87 745 z "},"f":{"ha":877,"x_min":7,"x_max":903,"o":"m 152 743 l 903 743 l 876 608 l 535 608 l 508 475 l 848 474 l 821 336 l 483 336 l 442 134 q 211 -1 416 -1 l 7 1 l 35 139 l 102 138 q 181 199 168 137 l 208 334 l 74 335 l 101 472 l 232 472 l 263 608 l 127 608 l 152 743 z "},"g":{"ha":800,"x_min":3,"x_max":827,"o":"m 168 813 l 436 815 l 422 743 l 827 742 l 800 606 l 395 606 l 301 132 l 455 133 l 458 530 l 812 530 l 787 403 l 729 403 l 730 201 q 543 -1 730 -1 l 3 -1 l 124 608 l 55 608 l 81 743 l 151 743 l 168 813 z "},"h":{"ha":870,"x_min":5,"x_max":897,"o":"m 163 811 l 438 811 l 370 473 l 573 473 l 628 742 l 897 741 l 748 1 l 479 1 l 545 340 l 345 339 l 304 131 l 33 132 l 75 339 l 5 339 l 33 476 l 96 476 l 163 811 z "},"i":{"ha":456,"x_min":32,"x_max":453,"o":"m 181 746 l 453 746 l 304 1 l 32 1 l 181 746 z "},"j":{"ha":588,"x_min":-209,"x_max":566,"o":"m 294 746 l 566 746 l 403 -68 q 168 -204 376 -204 l -209 -204 l -181 -68 l 131 -68 l 294 746 z "},"k":{"ha":766,"x_min":10,"x_max":856,"o":"m 174 811 l 442 811 l 387 539 l 582 743 l 856 743 l 532 384 l 770 -137 l 510 -137 l 326 221 l 281 -1 l 10 -1 l 174 811 z "},"l":{"ha":714,"x_min":2,"x_max":696,"o":"m 151 743 l 422 743 l 314 201 l 696 326 l 666 180 l 138 0 l 2 0 l 151 743 z "},"m":{"ha":1048,"x_min":8,"x_max":1074,"o":"m 143 814 l 413 814 l 399 745 l 575 745 q 720 662 730 742 l 736 744 l 871 744 q 1047 608 1074 743 l 926 0 l 657 0 l 780 612 l 709 611 l 600 64 l 332 63 l 441 612 l 375 612 l 276 135 l 8 135 l 143 814 z "},"n":{"ha":949,"x_min":8,"x_max":975,"o":"m 174 817 l 448 817 l 633 405 l 699 746 l 975 747 l 852 136 q 621 1 821 -2 l 519 1 l 367 425 l 280 0 l 8 -1 l 174 817 z "},"o":{"ha":878,"x_min":8,"x_max":902,"o":"m 129 610 q 359 744 155 744 l 699 744 q 875 610 902 744 l 781 136 q 548 0 753 0 l 210 0 q 34 133 8 1 l 129 610 m 401 608 l 306 134 l 509 134 l 604 608 l 401 608 z "},"p":{"ha":877,"x_min":6,"x_max":898,"o":"m 157 743 l 698 743 q 871 610 898 744 l 817 338 q 589 203 789 207 l 388 203 l 413 338 l 549 337 l 606 610 l 129 610 l 157 743 m 113 541 l 386 541 l 277 0 l 6 -1 l 113 541 z "},"q":{"ha":877,"x_min":8,"x_max":902,"o":"m 129 610 q 359 744 155 744 l 699 744 q 876 610 902 744 l 726 -136 l 455 -135 l 604 608 l 401 608 l 306 134 l 444 134 l 416 0 l 212 0 q 34 133 8 1 l 129 610 z "},"r":{"ha":868,"x_min":4,"x_max":897,"o":"m 153 746 l 897 746 l 822 370 q 666 275 802 274 l 753 0 l 479 1 l 393 269 l 330 270 l 275 1 l 4 1 l 112 545 l 386 545 l 360 410 l 562 410 l 604 612 l 126 612 l 153 746 z "},"s":{"ha":815,"x_min":15,"x_max":840,"o":"m 137 609 q 366 745 165 745 l 840 745 l 814 609 l 410 609 l 384 477 l 578 441 q 760 339 773 405 l 718 132 q 492 0 691 1 l 15 0 l 41 135 l 448 135 l 475 267 l 279 304 q 96 404 83 340 l 137 609 z "},"t":{"ha":760,"x_min":58,"x_max":793,"o":"m 534 543 l 531 541 l 421 0 l 151 0 l 262 543 l 58 543 l 88 683 l 426 683 q 505 744 492 682 l 519 817 l 793 817 l 766 679 l 767 679 l 766 678 q 534 543 739 543 l 534 543 z "},"u":{"ha":878,"x_min":7,"x_max":903,"o":"m 631 745 l 903 745 l 783 132 q 552 -1 755 1 l 213 -1 q 37 134 7 1 l 117 538 l 50 538 l 77 677 l 415 677 l 308 133 l 509 133 l 631 745 z "},"v":{"ha":720,"x_min":7,"x_max":771,"o":"m 7 747 l 264 747 l 340 315 l 473 608 l 361 610 l 406 743 l 771 744 l 547 155 l 394 155 l 414 0 l 153 0 l 7 747 z "},"w":{"ha":1088,"x_min":7,"x_max":1139,"o":"m 7 747 l 264 747 l 340 315 l 414 501 l 375 747 l 633 747 l 709 315 l 841 608 l 730 610 l 774 743 l 1139 744 l 915 155 l 762 155 l 782 0 l 522 0 l 492 154 l 387 155 l 414 0 l 153 0 l 7 747 z "},"x":{"ha":796,"x_min":4,"x_max":898,"o":"m 154 745 l 429 745 l 487 539 l 630 742 l 898 742 l 615 373 l 711 133 l 779 132 l 751 0 l 485 0 l 427 206 l 277 -1 l 4 0 l 287 366 l 202 609 l 127 610 l 154 745 z "},"y":{"ha":755,"x_min":8,"x_max":848,"o":"m 344 0 l 8 0 l 35 138 l 134 136 l 230 267 l 102 742 l 371 742 l 406 474 l 573 745 l 848 745 l 344 0 z "},"z":{"ha":808,"x_min":7,"x_max":834,"o":"m 155 746 l 834 747 l 807 609 l 353 136 l 714 136 l 688 -1 l 7 1 l 35 135 l 491 610 l 129 611 l 155 746 z "},"{":{"ha":464,"x_min":0,"x_max":0,"o":""},"|":{"ha":361,"x_min":0,"x_max":0,"o":""},"}":{"ha":464,"x_min":0,"x_max":0,"o":""},"~":{"ha":811,"x_min":0,"x_max":0,"o":""},"Ä":{"ha":850,"x_min":9,"x_max":879,"o":"m 150 814 l 425 814 l 411 748 l 680 747 q 851 611 879 747 l 729 1 l 470 2 l 510 205 l 368 204 l 395 342 l 536 342 l 591 613 l 383 614 l 282 111 l 9 111 l 150 814 m 394 1097 q 446 1083 420 1097 q 486 1044 471 1069 q 500 990 500 1019 q 486 938 500 963 q 447 899 472 913 q 394 885 421 885 q 341 899 366 885 q 301 938 315 913 q 288 990 288 963 q 302 1044 288 1019 q 341 1083 316 1069 q 394 1097 367 1097 m 643 1097 q 695 1083 670 1097 q 735 1043 721 1069 q 749 990 749 1018 q 735 938 749 963 q 696 899 722 913 q 643 884 671 884 q 590 899 616 884 q 551 938 565 913 q 537 990 537 963 q 551 1043 537 1018 q 591 1083 566 1069 q 643 1097 616 1097 z "},"Å":{"ha":926,"x_min":0,"x_max":0,"o":""},"Ç":{"ha":766,"x_min":-14,"x_max":783,"o":"m 335 747 l 783 747 l 755 609 l 375 609 l 279 132 l 654 132 l 628 1 l 186 1 q 13 135 -14 1 l 108 611 q 335 747 136 747 m 186 -255 l 298 -22 l 414 -22 l 358 -255 l 186 -255 z "},"É":{"ha":806,"x_min":7,"x_max":834,"o":"m 87 745 l 834 745 l 807 608 l 467 608 l 440 473 l 778 473 l 751 338 l 412 338 l 385 201 q 444 132 370 134 l 710 133 l 685 1 l 279 1 q 100 134 73 0 l 141 338 l 7 338 l 34 473 l 170 474 l 197 612 l 61 611 l 87 745 m 372 882 l 471 1158 l 653 1158 l 488 882 l 372 882 z "},"Ñ":{"ha":949,"x_min":8,"x_max":975,"o":"m 174 817 l 448 817 l 633 405 l 699 746 l 975 747 l 852 136 q 621 1 821 -2 l 519 1 l 367 425 l 280 0 l 8 -1 l 174 817 m 505 979 l 440 880 l 324 880 q 499 1130 442 1131 q 686 1031 555 1130 l 751 1131 l 867 1131 q 706 880 763 880 q 505 979 650 880 z "},"Ö":{"ha":878,"x_min":8,"x_max":902,"o":"m 129 610 q 359 744 155 744 l 699 744 q 875 610 902 744 l 781 136 q 548 0 753 0 l 210 0 q 34 133 8 1 l 129 610 m 401 608 l 306 134 l 509 134 l 604 608 l 401 608 m 420 1093 q 472 1079 446 1093 q 511 1040 497 1065 q 526 987 526 1015 q 512 935 526 960 q 472 896 498 909 q 420 882 447 882 q 367 896 392 882 q 327 935 341 909 q 313 987 313 960 q 328 1040 313 1015 q 367 1079 342 1065 q 420 1093 393 1093 m 669 1093 q 721 1079 696 1093 q 761 1040 747 1065 q 775 987 775 1015 q 761 935 775 960 q 722 895 747 909 q 669 881 696 881 q 616 895 642 881 q 577 935 591 909 q 563 987 563 960 q 577 1040 563 1015 q 617 1079 591 1065 q 669 1093 642 1093 z "},"Ü":{"ha":878,"x_min":7,"x_max":903,"o":"m 631 745 l 903 745 l 783 132 q 552 -1 755 1 l 213 -1 q 37 134 7 1 l 117 538 l 50 538 l 77 677 l 415 677 l 308 133 l 509 133 l 631 745 m 420 1093 q 472 1079 447 1093 q 512 1040 498 1065 q 526 987 526 1015 q 512 935 526 960 q 473 896 498 909 q 420 882 448 882 q 367 896 393 882 q 328 935 342 909 q 314 987 314 960 q 328 1040 314 1015 q 368 1079 342 1065 q 420 1093 393 1093 m 669 1093 q 722 1079 696 1093 q 762 1040 747 1065 q 776 987 776 1015 q 762 935 776 960 q 723 895 748 909 q 669 881 697 881 q 617 895 642 881 q 577 935 591 909 q 564 987 564 960 q 578 1040 564 1015 q 617 1079 592 1065 q 669 1093 643 1093 z "},"á":{"ha":850,"x_min":9,"x_max":879,"o":"m 150 814 l 425 814 l 411 748 l 680 747 q 851 611 879 747 l 729 1 l 470 2 l 510 205 l 368 204 l 395 342 l 536 342 l 591 613 l 383 614 l 282 111 l 9 111 l 150 814 m 443 880 l 542 1156 l 724 1156 l 559 880 l 443 880 z "},"à":{"ha":850,"x_min":12,"x_max":881,"o":"m 152 814 l 427 814 l 413 748 l 682 747 q 853 611 881 747 l 731 1 l 472 2 l 512 205 l 370 204 l 397 342 l 538 342 l 593 613 l 385 614 l 284 111 l 12 111 l 152 814 m 494 880 l 361 1156 l 543 1156 l 610 880 l 494 880 z "},"â":{"ha":850,"x_min":9,"x_max":879,"o":"m 150 814 l 425 814 l 411 748 l 680 747 q 851 611 879 747 l 729 1 l 470 2 l 510 205 l 368 204 l 395 342 l 536 342 l 591 613 l 383 614 l 282 111 l 9 111 l 150 814 m 623 1156 l 679 880 l 563 880 l 532 979 l 467 880 l 351 880 l 510 1156 l 623 1156 z "},"ä":{"ha":850,"x_min":9,"x_max":879,"o":"m 150 814 l 425 814 l 411 748 l 680 747 q 851 611 879 747 l 729 1 l 470 2 l 510 205 l 368 204 l 395 342 l 536 342 l 591 613 l 383 614 l 282 111 l 9 111 l 150 814 m 393 1097 q 446 1083 420 1097 q 486 1044 471 1069 q 500 990 500 1019 q 486 938 500 963 q 446 899 471 913 q 393 885 421 885 q 341 899 366 885 q 301 938 315 913 q 288 990 288 963 q 302 1044 288 1019 q 341 1083 316 1069 q 393 1097 366 1097 m 643 1097 q 695 1083 670 1097 q 734 1043 720 1069 q 749 990 749 1018 q 735 938 749 963 q 695 899 721 913 q 643 884 670 884 q 590 899 615 884 q 551 938 565 913 q 536 990 536 963 q 551 1043 536 1018 q 590 1083 565 1069 q 643 1097 616 1097 z "},"ã":{"ha":850,"x_min":9,"x_max":879,"o":"m 150 814 l 425 814 l 411 748 l 680 747 q 851 611 879 747 l 729 1 l 470 2 l 510 205 l 368 204 l 395 342 l 536 342 l 591 613 l 383 614 l 282 111 l 9 111 l 150 814 m 451 979 l 386 880 l 270 880 q 445 1130 388 1131 q 631 1031 501 1130 l 696 1131 l 812 1131 q 652 880 709 880 q 451 979 595 880 z "},"å":{"ha":772,"x_min":0,"x_max":0,"o":""},"ç":{"ha":766,"x_min":-14,"x_max":783,"o":"m 335 747 l 783 747 l 755 609 l 375 609 l 279 132 l 654 132 l 628 1 l 186 1 q 13 135 -14 1 l 108 611 q 335 747 136 747 m 186 -255 l 298 -22 l 414 -22 l 358 -255 l 186 -255 z "},"é":{"ha":806,"x_min":7,"x_max":834,"o":"m 87 745 l 834 745 l 807 608 l 467 608 l 440 473 l 778 473 l 751 338 l 412 338 l 385 201 q 444 132 370 134 l 710 133 l 685 1 l 279 1 q 100 134 73 0 l 141 338 l 7 338 l 34 473 l 170 474 l 197 612 l 61 611 l 87 745 m 372 882 l 471 1158 l 653 1158 l 488 882 l 372 882 z "},"è":{"ha":806,"x_min":7,"x_max":834,"o":"m 87 745 l 834 745 l 807 608 l 467 608 l 440 473 l 778 473 l 751 338 l 412 338 l 385 201 q 444 132 370 134 l 710 133 l 685 1 l 279 1 q 100 134 73 0 l 141 338 l 7 338 l 34 473 l 170 474 l 197 612 l 61 611 l 87 745 m 444 880 l 310 1156 l 492 1156 l 559 880 l 444 880 z "},"ê":{"ha":806,"x_min":7,"x_max":834,"o":"m 87 745 l 834 745 l 807 608 l 467 608 l 440 473 l 778 473 l 751 338 l 412 338 l 385 201 q 444 132 370 134 l 710 133 l 685 1 l 279 1 q 100 134 73 0 l 141 338 l 7 338 l 34 473 l 170 474 l 197 612 l 61 611 l 87 745 m 582 1156 l 638 880 l 522 880 l 492 979 l 427 880 l 311 880 l 469 1156 l 582 1156 z "},"ë":{"ha":806,"x_min":7,"x_max":834,"o":"m 87 745 l 834 745 l 807 608 l 467 608 l 440 473 l 778 473 l 751 338 l 412 338 l 385 201 q 444 132 370 134 l 710 133 l 685 1 l 279 1 q 100 134 73 0 l 141 338 l 7 338 l 34 473 l 170 474 l 197 612 l 61 611 l 87 745 m 349 1122 q 400 1108 375 1122 q 440 1069 426 1094 q 454 1015 454 1044 q 440 963 454 988 q 401 924 427 938 q 349 910 376 910 q 295 924 321 910 q 256 963 270 938 q 242 1015 242 988 q 256 1069 242 1044 q 296 1108 271 1094 q 349 1122 321 1122 m 597 1122 q 650 1108 625 1122 q 690 1068 675 1094 q 704 1015 704 1043 q 690 963 704 988 q 651 924 676 938 q 597 909 625 909 q 545 924 570 909 q 506 963 519 938 q 492 1015 492 988 q 506 1068 492 1043 q 546 1108 520 1094 q 597 1122 571 1122 z "},"í":{"ha":456,"x_min":32,"x_max":564,"o":"m 181 746 l 453 746 l 304 1 l 32 1 l 181 746 m 283 880 l 382 1156 l 564 1156 l 399 880 l 283 880 z "},"ì":{"ha":456,"x_min":32,"x_max":453,"o":"m 181 746 l 453 746 l 304 1 l 32 1 l 181 746 m 277 880 l 143 1156 l 326 1156 l 393 880 l 277 880 z "},"î":{"ha":456,"x_min":32,"x_max":485,"o":"m 181 746 l 453 746 l 304 1 l 32 1 l 181 746 m 440 1156 l 485 880 l 392 880 l 368 979 l 316 880 l 223 880 l 350 1156 l 440 1156 z "},"ï":{"ha":456,"x_min":32,"x_max":568,"o":"m 181 746 l 453 746 l 304 1 l 32 1 l 181 746 m 212 1122 q 264 1108 239 1122 q 304 1069 290 1094 q 318 1015 318 1044 q 304 963 318 988 q 265 924 290 938 q 212 910 239 910 q 159 924 184 910 q 120 963 134 938 q 106 1015 106 988 q 120 1069 106 1044 q 160 1108 134 1094 q 212 1122 185 1122 m 461 1122 q 514 1108 488 1122 q 553 1068 539 1094 q 568 1015 568 1043 q 554 963 568 988 q 514 924 540 938 q 461 909 489 909 q 409 924 434 909 q 369 963 383 938 q 355 1015 355 988 q 370 1068 355 1043 q 409 1108 384 1094 q 461 1122 435 1122 z "},"ñ":{"ha":949,"x_min":8,"x_max":975,"o":"m 174 817 l 448 817 l 633 405 l 699 746 l 975 747 l 852 136 q 621 1 821 -2 l 519 1 l 367 425 l 280 0 l 8 -1 l 174 817 m 505 979 l 440 880 l 324 880 q 499 1130 442 1131 q 686 1031 555 1130 l 751 1131 l 867 1131 q 706 880 763 880 q 505 979 650 880 z "},"ó":{"ha":878,"x_min":8,"x_max":902,"o":"m 129 610 q 359 744 155 744 l 699 744 q 875 610 902 744 l 781 136 q 548 0 753 0 l 210 0 q 34 133 8 1 l 129 610 m 401 608 l 306 134 l 509 134 l 604 608 l 401 608 m 506 880 l 605 1156 l 787 1156 l 622 880 l 506 880 z "},"ò":{"ha":878,"x_min":8,"x_max":902,"o":"m 129 610 q 359 744 155 744 l 699 744 q 875 610 902 744 l 781 136 q 548 0 753 0 l 210 0 q 34 133 8 1 l 129 610 m 401 608 l 306 134 l 509 134 l 604 608 l 401 608 m 490 880 l 356 1156 l 538 1156 l 606 880 l 490 880 z "},"ô":{"ha":878,"x_min":8,"x_max":902,"o":"m 129 610 q 359 744 155 744 l 699 744 q 875 610 902 744 l 781 136 q 548 0 753 0 l 210 0 q 34 133 8 1 l 129 610 m 401 608 l 306 134 l 509 134 l 604 608 l 401 608 m 647 1156 l 703 880 l 587 880 l 557 979 l 492 880 l 376 880 l 534 1156 l 647 1156 z "},"ö":{"ha":878,"x_min":8,"x_max":902,"o":"m 129 610 q 359 744 155 744 l 699 744 q 875 610 902 744 l 781 136 q 548 0 753 0 l 210 0 q 34 133 8 1 l 129 610 m 401 608 l 306 134 l 509 134 l 604 608 l 401 608 m 419 1093 q 472 1079 446 1093 q 511 1040 497 1065 q 526 987 526 1015 q 511 935 526 960 q 472 896 497 909 q 419 882 447 882 q 367 896 392 882 q 327 935 341 909 q 313 987 313 960 q 328 1040 313 1015 q 367 1079 342 1065 q 419 1093 392 1093 m 669 1093 q 721 1079 696 1093 q 760 1040 746 1065 q 774 987 774 1015 q 761 935 774 960 q 721 895 747 909 q 669 881 696 881 q 616 895 641 881 q 576 935 591 909 q 562 987 562 960 q 576 1040 562 1015 q 616 1079 591 1065 q 669 1093 642 1093 z "},"õ":{"ha":878,"x_min":8,"x_max":902,"o":"m 129 610 q 359 744 155 744 l 699 744 q 875 610 902 744 l 781 136 q 548 0 753 0 l 210 0 q 34 133 8 1 l 129 610 m 401 608 l 306 134 l 509 134 l 604 608 l 401 608 m 470 979 l 405 880 l 289 880 q 464 1130 407 1131 q 650 1031 520 1130 l 715 1131 l 831 1131 q 671 880 728 880 q 470 979 614 880 z "},"ú":{"ha":878,"x_min":7,"x_max":903,"o":"m 631 745 l 903 745 l 783 132 q 552 -1 755 1 l 213 -1 q 37 134 7 1 l 117 538 l 50 538 l 77 677 l 415 677 l 308 133 l 509 133 l 631 745 m 481 880 l 580 1156 l 762 1156 l 597 880 l 481 880 z "},"ù":{"ha":878,"x_min":7,"x_max":903,"o":"m 631 745 l 903 745 l 783 132 q 552 -1 755 1 l 213 -1 q 37 134 7 1 l 117 538 l 50 538 l 77 677 l 415 677 l 308 133 l 509 133 l 631 745 m 490 880 l 356 1156 l 538 1156 l 606 880 l 490 880 z "},"û":{"ha":878,"x_min":7,"x_max":903,"o":"m 631 745 l 903 745 l 783 132 q 552 -1 755 1 l 213 -1 q 37 134 7 1 l 117 538 l 50 538 l 77 677 l 415 677 l 308 133 l 509 133 l 631 745 m 635 1156 l 691 880 l 575 880 l 545 979 l 479 880 l 363 880 l 522 1156 l 635 1156 z "},"ü":{"ha":878,"x_min":7,"x_max":903,"o":"m 631 745 l 903 745 l 783 132 q 552 -1 755 1 l 213 -1 q 37 134 7 1 l 117 538 l 50 538 l 77 677 l 415 677 l 308 133 l 509 133 l 631 745 m 420 1093 q 472 1079 447 1093 q 512 1040 498 1065 q 526 987 526 1015 q 512 935 526 960 q 473 896 498 909 q 420 882 448 882 q 367 896 393 882 q 328 935 342 909 q 314 987 314 960 q 328 1040 314 1015 q 368 1079 342 1065 q 420 1093 393 1093 m 669 1093 q 722 1079 696 1093 q 761 1040 747 1065 q 775 987 775 1015 q 761 935 775 960 q 722 895 747 909 q 669 881 696 881 q 616 895 642 881 q 577 935 591 909 q 563 987 563 960 q 577 1040 563 1015 q 617 1079 591 1065 q 669 1093 642 1093 z "},"†":{"ha":772,"x_min":0,"x_max":0,"o":""},"°":{"ha":555,"x_min":0,"x_max":0,"o":""},"¢":{"ha":772,"x_min":0,"x_max":0,"o":""},"£":{"ha":772,"x_min":0,"x_max":0,"o":""},"§":{"ha":772,"x_min":0,"x_max":0,"o":""},"•":{"ha":486,"x_min":0,"x_max":0,"o":""},"¶":{"ha":746,"x_min":0,"x_max":0,"o":""},"ß":{"ha":868,"x_min":5,"x_max":868,"o":"m 558 745 l 802 746 l 868 610 l 665 443 l 749 442 q 804 288 833 441 l 774 135 q 508 0 747 -1 l 335 0 l 361 133 q 517 202 503 132 l 540 314 l 405 315 l 430 442 l 629 612 l 530 611 q 369 475 395 610 l 275 0 l 5 0 l 94 474 q 558 745 153 744 z "},"®":{"ha":1023,"x_min":0,"x_max":0,"o":""},"©":{"ha":1023,"x_min":0,"x_max":0,"o":""},"™":{"ha":1389,"x_min":0,"x_max":0,"o":""},"´":{"ha":208,"x_min":71,"x_max":352,"o":"m 71 880 l 170 1156 l 352 1156 l 186 880 l 71 880 z "},"¨":{"ha":486,"x_min":1,"x_max":463,"o":"m 108 1122 q 160 1108 134 1122 q 199 1069 185 1094 q 214 1015 214 1044 q 200 963 214 988 q 160 924 186 938 q 108 910 135 910 q 55 924 80 910 q 15 963 29 938 q 1 1015 1 988 q 16 1069 1 1044 q 55 1108 30 1094 q 108 1122 81 1122 m 357 1122 q 409 1108 384 1122 q 449 1068 435 1094 q 463 1015 463 1043 q 449 963 463 988 q 410 924 435 938 q 357 909 385 909 q 304 924 330 909 q 265 963 279 938 q 251 1015 251 988 q 265 1068 251 1043 q 305 1108 279 1094 q 357 1122 330 1122 z "},"≠":{"ha":762,"x_min":0,"x_max":0,"o":""},"Æ":{"ha":1389,"x_min":0,"x_max":0,"o":""},"Ø":{"ha":1080,"x_min":0,"x_max":0,"o":""},"∞":{"ha":990,"x_min":0,"x_max":0,"o":""},"±":{"ha":762,"x_min":0,"x_max":0,"o":""},"≤":{"ha":762,"x_min":0,"x_max":0,"o":""},"≥":{"ha":762,"x_min":0,"x_max":0,"o":""},"¥":{"ha":772,"x_min":0,"x_max":0,"o":""},"µ":{"ha":800,"x_min":0,"x_max":0,"o":""},"∂":{"ha":686,"x_min":0,"x_max":0,"o":""},"∑":{"ha":990,"x_min":0,"x_max":0,"o":""},"∏":{"ha":1143,"x_min":0,"x_max":0,"o":""},"∫":{"ha":380,"x_min":0,"x_max":0,"o":""},"ª":{"ha":514,"x_min":0,"x_max":0,"o":""},"º":{"ha":507,"x_min":0,"x_max":0,"o":""},"Ω":{"ha":1067,"x_min":0,"x_max":0,"o":""},"æ":{"ha":1235,"x_min":0,"x_max":0,"o":""},"ø":{"ha":848,"x_min":0,"x_max":0,"o":""},"¿":{"ha":817,"x_min":-3,"x_max":814,"o":"m 781 538 l 753 403 q 532 301 741 337 l 322 264 l 296 133 l 701 133 l 672 -3 l 198 -3 q 23 133 -3 -3 l 64 338 q 287 438 76 401 l 498 475 l 510 538 l 781 538 m 814 745 l 789 607 l 521 607 l 546 745 l 814 745 z "},"¡":{"ha":510,"x_min":49,"x_max":497,"o":"m 497 747 l 472 608 l 252 608 l 277 747 l 497 747 m 321 -69 l 49 -69 l 241 538 l 444 538 l 321 -69 z "},"¬":{"ha":811,"x_min":0,"x_max":0,"o":""},"√":{"ha":762,"x_min":0,"x_max":0,"o":""},"ƒ":{"ha":772,"x_min":0,"x_max":0,"o":""},"≈":{"ha":762,"x_min":0,"x_max":0,"o":""},"∆":{"ha":850,"x_min":0,"x_max":0,"o":""},"«":{"ha":772,"x_min":0,"x_max":0,"o":""},"»":{"ha":772,"x_min":0,"x_max":0,"o":""},"…":{"ha":1389,"x_min":0,"x_max":0,"o":""},"À":{"ha":850,"x_min":12,"x_max":881,"o":"m 152 814 l 427 814 l 413 748 l 682 747 q 853 611 881 747 l 731 1 l 472 2 l 512 205 l 370 204 l 397 342 l 538 342 l 593 613 l 385 614 l 284 111 l 12 111 l 152 814 m 494 880 l 361 1156 l 543 1156 l 610 880 l 494 880 z "},"Ã":{"ha":850,"x_min":9,"x_max":879,"o":"m 150 814 l 425 814 l 411 748 l 680 747 q 851 611 879 747 l 729 1 l 470 2 l 510 205 l 368 204 l 395 342 l 536 342 l 591 613 l 383 614 l 282 111 l 9 111 l 150 814 m 451 979 l 386 880 l 270 880 q 445 1130 388 1131 q 631 1031 501 1130 l 696 1131 l 812 1131 q 652 880 709 880 q 451 979 595 880 z "},"Õ":{"ha":878,"x_min":8,"x_max":902,"o":"m 129 610 q 359 744 155 744 l 699 744 q 875 610 902 744 l 781 136 q 548 0 753 0 l 210 0 q 34 133 8 1 l 129 610 m 401 608 l 306 134 l 509 134 l 604 608 l 401 608 m 470 979 l 405 880 l 289 880 q 464 1130 407 1131 q 650 1031 520 1130 l 715 1131 l 831 1131 q 671 880 728 880 q 470 979 614 880 z "},"Œ":{"ha":1389,"x_min":0,"x_max":0,"o":""},"œ":{"ha":1311,"x_min":0,"x_max":0,"o":""},"–":{"ha":772,"x_min":0,"x_max":0,"o":""},"—":{"ha":1389,"x_min":0,"x_max":0,"o":""},"“":{"ha":412,"x_min":28,"x_max":425,"o":"m 28 559 l 79 814 l 235 814 l 184 559 l 28 559 m 218 559 l 269 814 l 425 814 l 374 559 l 218 559 z "},"”":{"ha":412,"x_min":28,"x_max":425,"o":"m 28 559 l 79 814 l 235 814 l 184 559 l 28 559 m 218 559 l 269 814 l 425 814 l 374 559 l 218 559 z "},"‘":{"ha":208,"x_min":28,"x_max":235,"o":"m 28 559 l 79 814 l 235 814 l 184 559 l 28 559 z "},"’":{"ha":208,"x_min":28,"x_max":235,"o":"m 28 559 l 79 814 l 235 814 l 184 559 l 28 559 z "},"÷":{"ha":762,"x_min":0,"x_max":0,"o":""},"◊":{"ha":686,"x_min":0,"x_max":0,"o":""},"ÿ":{"ha":694,"x_min":0,"x_max":0,"o":""},"Ÿ":{"ha":926,"x_min":0,"x_max":0,"o":""},"⁄":{"ha":232,"x_min":0,"x_max":0,"o":""},"∕":{"ha":232,"x_min":0,"x_max":0,"o":""},"€":{"ha":755,"x_min":-56,"x_max":785,"o":"m 82 476 l 109 611 q 336 747 137 747 l 785 747 l 756 609 l 376 609 l 350 476 l 574 476 l 561 410 l 336 410 l 322 338 l 546 338 l 532 272 l 309 272 l 281 132 l 655 132 l 629 1 l 188 1 q 14 135 -13 1 l 41 272 l -56 272 l -43 338 l 55 338 l 69 410 l -28 410 l -14 476 l 82 476 z "},"‹":{"ha":463,"x_min":0,"x_max":0,"o":""},"›":{"ha":463,"x_min":0,"x_max":0,"o":""},"":{"ha":694,"x_min":0,"x_max":0,"o":""},"ﬁ":{"ha":694,"x_min":0,"x_max":0,"o":""},"":{"ha":694,"x_min":0,"x_max":0,"o":""},"ﬂ":{"ha":694,"x_min":0,"x_max":0,"o":""},"‡":{"ha":772,"x_min":0,"x_max":0,"o":""},"·":{"ha":386,"x_min":0,"x_max":0,"o":""},"∙":{"ha":386,"x_min":0,"x_max":0,"o":""},"‚":{"ha":309,"x_min":0,"x_max":0,"o":""},"„":{"ha":463,"x_min":0,"x_max":0,"o":""},"‰":{"ha":1389,"x_min":0,"x_max":0,"o":""},"Â":{"ha":850,"x_min":9,"x_max":879,"o":"m 150 814 l 425 814 l 411 748 l 680 747 q 851 611 879 747 l 729 1 l 470 2 l 510 205 l 368 204 l 395 342 l 536 342 l 591 613 l 383 614 l 282 111 l 9 111 l 150 814 m 623 1156 l 679 880 l 563 880 l 533 979 l 467 880 l 351 880 l 510 1156 l 623 1156 z "},"Ê":{"ha":806,"x_min":7,"x_max":834,"o":"m 87 745 l 834 745 l 807 608 l 467 608 l 440 473 l 778 473 l 751 338 l 412 338 l 385 201 q 444 132 370 134 l 710 133 l 685 1 l 279 1 q 100 134 73 0 l 141 338 l 7 338 l 34 473 l 170 474 l 197 612 l 61 611 l 87 745 m 582 1156 l 638 880 l 522 880 l 492 979 l 427 880 l 311 880 l 469 1156 l 582 1156 z "},"Á":{"ha":850,"x_min":9,"x_max":879,"o":"m 150 814 l 425 814 l 411 748 l 680 747 q 851 611 879 747 l 729 1 l 470 2 l 510 205 l 368 204 l 395 342 l 536 342 l 591 613 l 383 614 l 282 111 l 9 111 l 150 814 m 443 880 l 542 1156 l 724 1156 l 559 880 l 443 880 z "},"Ë":{"ha":806,"x_min":7,"x_max":834,"o":"m 87 745 l 834 745 l 807 608 l 467 608 l 440 473 l 778 473 l 751 338 l 412 338 l 385 201 q 444 132 370 134 l 710 133 l 685 1 l 279 1 q 100 134 73 0 l 141 338 l 7 338 l 34 473 l 170 474 l 197 612 l 61 611 l 87 745 m 348 1122 q 400 1108 375 1122 q 440 1069 426 1095 q 454 1016 454 1044 q 440 963 454 988 q 401 924 427 938 q 348 910 376 910 q 295 924 321 910 q 256 963 270 938 q 242 1016 242 988 q 256 1069 242 1044 q 296 1108 271 1095 q 348 1122 321 1122 m 597 1122 q 650 1108 625 1122 q 690 1069 675 1094 q 704 1015 704 1044 q 690 963 704 988 q 650 924 675 938 q 597 910 625 910 q 545 924 570 910 q 506 963 519 938 q 492 1015 492 988 q 506 1069 492 1044 q 545 1108 520 1094 q 597 1122 570 1122 z "},"È":{"ha":806,"x_min":7,"x_max":834,"o":"m 87 745 l 834 745 l 807 608 l 467 608 l 440 473 l 778 473 l 751 338 l 412 338 l 385 201 q 444 132 370 134 l 710 133 l 685 1 l 279 1 q 100 134 73 0 l 141 338 l 7 338 l 34 473 l 170 474 l 197 612 l 61 611 l 87 745 m 444 880 l 310 1156 l 492 1156 l 559 880 l 444 880 z "},"Í":{"ha":456,"x_min":32,"x_max":564,"o":"m 181 746 l 453 746 l 304 1 l 32 1 l 181 746 m 283 880 l 381 1156 l 564 1156 l 399 880 l 283 880 z "},"Î":{"ha":456,"x_min":32,"x_max":473,"o":"m 181 746 l 453 746 l 304 1 l 32 1 l 181 746 m 428 1156 l 473 880 l 380 880 l 355 979 l 303 880 l 211 880 l 338 1156 l 428 1156 z "},"Ï":{"ha":456,"x_min":32,"x_max":568,"o":"m 181 746 l 453 746 l 304 1 l 32 1 l 181 746 m 212 1122 q 264 1108 239 1122 q 304 1069 290 1095 q 318 1016 318 1044 q 304 963 318 988 q 265 924 290 938 q 212 910 239 910 q 159 924 184 910 q 120 963 134 938 q 106 1016 106 988 q 120 1069 106 1044 q 160 1108 134 1095 q 212 1122 185 1122 m 462 1122 q 514 1108 488 1122 q 553 1069 539 1095 q 568 1016 568 1044 q 554 963 568 988 q 514 924 540 938 q 462 910 489 910 q 409 924 434 910 q 369 963 383 938 q 355 1016 355 988 q 370 1069 355 1044 q 409 1108 384 1095 q 462 1122 435 1122 z "},"Ì":{"ha":456,"x_min":32,"x_max":453,"o":"m 181 746 l 453 746 l 304 1 l 32 1 l 181 746 m 276 880 l 143 1156 l 326 1156 l 392 880 l 276 880 z "},"Ó":{"ha":878,"x_min":8,"x_max":902,"o":"m 129 610 q 359 744 155 744 l 699 744 q 875 610 902 744 l 781 136 q 548 0 753 0 l 210 0 q 34 133 8 1 l 129 610 m 401 608 l 306 134 l 509 134 l 604 608 l 401 608 m 506 880 l 605 1156 l 787 1156 l 622 880 l 506 880 z "},"Ô":{"ha":878,"x_min":8,"x_max":902,"o":"m 129 610 q 359 744 155 744 l 699 744 q 875 610 902 744 l 781 136 q 548 0 753 0 l 210 0 q 34 133 8 1 l 129 610 m 401 608 l 306 134 l 509 134 l 604 608 l 401 608 m 648 1156 l 703 880 l 587 880 l 557 979 l 492 880 l 376 880 l 534 1156 l 648 1156 z "},"Ò":{"ha":878,"x_min":8,"x_max":902,"o":"m 129 610 q 359 744 155 744 l 699 744 q 875 610 902 744 l 781 136 q 548 0 753 0 l 210 0 q 34 133 8 1 l 129 610 m 401 608 l 306 134 l 509 134 l 604 608 l 401 608 m 490 880 l 356 1156 l 538 1156 l 606 880 l 490 880 z "},"Ú":{"ha":878,"x_min":7,"x_max":903,"o":"m 631 745 l 903 745 l 783 132 q 552 -1 755 1 l 213 -1 q 37 134 7 1 l 117 538 l 50 538 l 77 677 l 415 677 l 308 133 l 509 133 l 631 745 m 481 880 l 580 1156 l 762 1156 l 597 880 l 481 880 z "},"Û":{"ha":878,"x_min":7,"x_max":903,"o":"m 631 745 l 903 745 l 783 132 q 552 -1 755 1 l 213 -1 q 37 134 7 1 l 117 538 l 50 538 l 77 677 l 415 677 l 308 133 l 509 133 l 631 745 m 635 1156 l 691 880 l 575 880 l 545 979 l 479 880 l 363 880 l 522 1156 l 635 1156 z "},"Ù":{"ha":878,"x_min":7,"x_max":903,"o":"m 631 745 l 903 745 l 783 132 q 552 -1 755 1 l 213 -1 q 37 134 7 1 l 117 538 l 50 538 l 77 677 l 415 677 l 308 133 l 509 133 l 631 745 m 490 880 l 356 1156 l 538 1156 l 606 880 l 490 880 z "},"ı":{"ha":456,"x_min":32,"x_max":453,"o":"m 181 746 l 453 746 l 304 1 l 32 1 l 181 746 z "},"ˆ":{"ha":430,"x_min":64,"x_max":392,"o":"m 336 1156 l 392 880 l 276 880 l 245 979 l 180 880 l 64 880 l 223 1156 l 336 1156 z "},"˜":{"ha":430,"x_min":39,"x_max":581,"o":"m 220 979 l 155 880 l 39 880 q 213 1130 157 1131 q 400 1031 270 1130 l 465 1131 l 581 1131 q 421 880 477 880 q 220 979 364 880 z "},"ˉ":{"ha":463,"x_min":0,"x_max":0,"o":""},"˘":{"ha":463,"x_min":0,"x_max":0,"o":""},"˙":{"ha":463,"x_min":0,"x_max":0,"o":""},"˚":{"ha":463,"x_min":0,"x_max":0,"o":""},"¸":{"ha":463,"x_min":0,"x_max":0,"o":""},"˝":{"ha":463,"x_min":0,"x_max":0,"o":""},"˛":{"ha":463,"x_min":0,"x_max":0,"o":""},"ˇ":{"ha":463,"x_min":0,"x_max":0,"o":""},"Ł":{"ha":772,"x_min":0,"x_max":0,"o":""},"ł":{"ha":309,"x_min":0,"x_max":0,"o":""},"Š":{"ha":926,"x_min":0,"x_max":0,"o":""},"š":{"ha":694,"x_min":0,"x_max":0,"o":""},"Ž":{"ha":848,"x_min":0,"x_max":0,"o":""},"ž":{"ha":694,"x_min":0,"x_max":0,"o":""},"¦":{"ha":361,"x_min":0,"x_max":0,"o":""},"Ð":{"ha":1003,"x_min":0,"x_max":0,"o":""},"ð":{"ha":772,"x_min":0,"x_max":0,"o":""},"Ý":{"ha":926,"x_min":0,"x_max":0,"o":""},"ý":{"ha":694,"x_min":0,"x_max":0,"o":""},"Þ":{"ha":926,"x_min":0,"x_max":0,"o":""},"þ":{"ha":772,"x_min":0,"x_max":0,"o":""},"−":{"ha":811,"x_min":0,"x_max":0,"o":""},"×":{"ha":811,"x_min":0,"x_max":0,"o":""},"¹":{"ha":463,"x_min":0,"x_max":0,"o":""},"²":{"ha":463,"x_min":0,"x_max":0,"o":""},"³":{"ha":463,"x_min":0,"x_max":0,"o":""},"½":{"ha":1158,"x_min":0,"x_max":0,"o":""},"¼":{"ha":1158,"x_min":0,"x_max":0,"o":""},"¾":{"ha":1158,"x_min":0,"x_max":0,"o":""}}}
